<svg id="Layer_1" data-name="Layer 1" xmlns="http://www.w3.org/2000/svg" viewBox="0 0 250 250"><defs><style>.cls-1{fill:#f3704c;}.cls-1,.cls-2,.cls-3,.cls-5{fill-rule:evenodd;}.cls-2{fill:#fff;}.cls-3,.cls-4{fill:#fcba25;}.cls-5{fill:#f26b41;}.cls-6{fill:none;}</style></defs><path class="cls-1" d="M11.66,173.7C-15.11,111,13.85,38.55,76.3,11.75a123.31,123.31,0,1,1,97.25,226.63C111.05,265.16,38.7,236.2,11.66,173.7"/><path class="cls-2" d="M106.09,12.47c31.44-5.81,62,2.82,87.63,25.68,21.71,19.37,39.86,51.39,19.79,49.75-24.7-1.86,2.38,27,13.1,57.06,13.52,37.32-27.75,73.71-56.89,84.89-7.92,3-15.61,5.83-23.54,7.23-.7.23-1.39.23-2.09.45-31.71,5.85-62.29-3-87.92-25.88C34.48,192.31,18.39,161,38.46,162.59c24.72,1.87-4.17-27.65-15.14-57.77C10,67.74,51.28,31.36,80.21,20.18c7.93-3,15.59-5.81,23.52-7.23a6.86,6.86,0,0,1,2.36-.48"/><path class="cls-3" d="M168.2,89.82V202.44h-27a36.44,36.44,0,0,0,21.6-33.3c0-13.17,2.14-23.76-6.2-35.31-4.63-6.38-11.11-10.51-18.26-13.15V89.82Z"/><rect class="cls-4" x="138.34" y="34.31" width="29.85" height="25.83"/><path class="cls-5" d="M50.38,117.88l0,.07c4.54,16.51,17.56,23.54,33.48,26.42h35.88c5.68,0,10.9,4.33,10.9,10.22V166.1c0,5.88-5.22,10.2-10.9,10.2H36.32c2.59,8.23,8.08,17.06,17.07,26.6h73.77c18.5,0,33.17-15.44,33.17-33.76,0-12.49,2.17-23-5.72-33.85C148,126.1,137.1,122,126.31,120H90.45c-5.7,0-10.9-4.32-10.9-10.2V98.27c0-5.89,5.2-10.22,10.9-10.22h77.64V61.94H83.55c-18.47,0-33.17,15.43-33.17,33.76Z"/><rect class="cls-4" x="169.79" y="62" width="29.83" height="25.86"/><path class="cls-6" d="M106.09,12.47a6.86,6.86,0,0,0-2.36.48c-7.93,1.42-15.59,4.2-23.52,7.23C51.27,31.36,10,67.74,23.32,104.82c11,30.12,39.86,59.64,15.14,57.77-20.07-1.62-4,29.72,17.71,49.06,25.64,22.87,56.21,31.74,87.92,25.88.7-.22,1.39-.22,2.09-.46,7.93-1.39,15.62-4.19,23.54-7.22,29.14-11.19,70.41-47.57,56.89-84.89-10.72-30.07-37.8-58.92-13.1-57.06,20.07,1.64,1.92-30.38-19.79-49.75C173.27,19.9,149.65,10.72,125,10.72a103.71,103.71,0,0,0-18.87,1.75"/></svg>