<svg id="Layer_1" data-name="Layer 1" xmlns="http://www.w3.org/2000/svg" viewBox="0 0 250 60"><defs><style>.cls-1{fill:#f4b11b;}.cls-1,.cls-2,.cls-3,.cls-4,.cls-5,.cls-6,.cls-7,.cls-8,.cls-9{fill-rule:evenodd;}.cls-2{fill:#f26b41;}.cls-3{fill:#cf992c;}.cls-4{fill:#221f20;}.cls-5{fill:#18bdc3;}.cls-12,.cls-6{fill:#fdb731;}.cls-11,.cls-7{fill:#a3ce4b;}.cls-8{fill:#44c8f5;}.cls-9{fill:#f59c2b;}.cls-10{fill:#f37052;}</style></defs><polygon class="cls-1" points="15.44 47.04 230.44 47.04 230.44 48.38 15.44 48.38 15.44 47.04 15.44 47.04"/><path class="cls-2" d="M61.81,19.94V45.05H54.55V18.17A12.64,12.64,0,0,1,55,13.23c1.52-3.78,7.38-4.33,10-1.39A19.16,19.16,0,0,1,67.22,16c1,2.05,1.83,3.58,2.69,5.31L77,35.52l.22.11.06-.22,0-25.48h7.26l0,27.26a13.08,13.08,0,0,1-.47,4.47c-.89,2.5-3.75,3.72-6.32,3.36a4.2,4.2,0,0,1-2-.62,5.18,5.18,0,0,1-1.56-1.19,6.14,6.14,0,0,1-.73-1,57.89,57.89,0,0,1-4.61-8.23c-2.24-4.51-4.71-9.58-7-14Z"/><path class="cls-3" d="M222.79,8.74a.66.66,0,0,1,0,.15.25.25,0,0,1,0,.1s0,0,0,.06l-.06,0h-2.47A.3.3,0,0,1,220,9a.21.21,0,0,1-.09-.19V5.26a.23.23,0,0,1,.09-.2.35.35,0,0,1,.21-.06h2.45l.06,0a.12.12,0,0,1,.05.05l0,.1s0,.1,0,.16,0,.11,0,.15l0,.1a.12.12,0,0,1-.05,0s0,0-.06,0h-1.75v1h1.48l.06,0s0,0,.05,0l0,.1v.3a.46.46,0,0,1,0,.09s0,0-.05.06h-1.54V8.42h1.83s0,0,0,.06a.25.25,0,0,1,0,.1.66.66,0,0,1,0,.15Zm-4,0a.28.28,0,0,1,0,.13L218.7,9l-.12.06H218l-.23,0A.37.37,0,0,1,217.6,9a.61.61,0,0,1-.16-.16,2.13,2.13,0,0,1-.17-.25l-1.22-1.9-.22-.37-.2-.38h0c0,.15,0,.3,0,.45s0,.3,0,.46V9a.14.14,0,0,1,0,.06l-.08,0-.13,0-.23,0-.22,0-.14,0-.07,0a.14.14,0,0,1,0-.06V5.3a.25.25,0,0,1,.11-.22.42.42,0,0,1,.26-.08h.53l.25,0,.17.07a.58.58,0,0,1,.15.13,1.51,1.51,0,0,1,.14.21l1,1.48.16.27.16.26.15.26.14.25h0c0-.15,0-.3,0-.46V5.12a.08.08,0,0,1,0,0S218,5,218,5l.14,0h.44l.13,0s.06,0,.07.05a.08.08,0,0,1,0,0V8.78ZM213.68,9a.14.14,0,0,1,0,.06l-.08,0-.16,0-.24,0-.24,0-.16,0-.08,0a.14.14,0,0,1,0-.06V5.11a.08.08,0,0,1,0-.05.19.19,0,0,1,.09,0l.15,0h.48l.16,0,.08,0a.08.08,0,0,1,0,.05V9Zm-2.09-1.1a1,1,0,0,1-.15.56,1.15,1.15,0,0,1-.39.4,1.92,1.92,0,0,1-.58.25,3.13,3.13,0,0,1-.7.08,3.58,3.58,0,0,1-.48,0L208.91,9a2,2,0,0,1-.28-.11,1.22,1.22,0,0,1-.17-.09.23.23,0,0,1-.06-.12.65.65,0,0,1,0-.22c0-.07,0-.12,0-.16a.81.81,0,0,1,0-.11.09.09,0,0,1,0-.06l.07,0a.37.37,0,0,1,.15.06l.25.11.36.12a2.38,2.38,0,0,0,.49.05,1.15,1.15,0,0,0,.33,0,.82.82,0,0,0,.25-.1.57.57,0,0,0,.15-.16.42.42,0,0,0,.05-.22.32.32,0,0,0-.09-.23.76.76,0,0,0-.24-.18,2,2,0,0,0-.33-.14l-.38-.15a2.71,2.71,0,0,1-.39-.17,1.5,1.5,0,0,1-.33-.23,1,1,0,0,1-.24-.31,1,1,0,0,1-.09-.44,1,1,0,0,1,.13-.51,1.24,1.24,0,0,1,.35-.37,1.69,1.69,0,0,1,.53-.22,2.62,2.62,0,0,1,.64-.07l.35,0,.32.06.27.09a.46.46,0,0,1,.16.08l0,.05a.08.08,0,0,1,0,.06.64.64,0,0,1,0,.09v.14a.66.66,0,0,1,0,.15.31.31,0,0,1,0,.1.15.15,0,0,1,0,.06l-.07,0a.3.3,0,0,1-.13,0l-.23-.1-.3-.09a1.6,1.6,0,0,0-.39,0,1.11,1.11,0,0,0-.28,0,.67.67,0,0,0-.21.09.41.41,0,0,0-.12.14.33.33,0,0,0,0,.17.32.32,0,0,0,.09.23.76.76,0,0,0,.24.18,2.18,2.18,0,0,0,.34.14l.39.15a3.29,3.29,0,0,1,.39.17,1.56,1.56,0,0,1,.34.23,1,1,0,0,1,.24.31.94.94,0,0,1,.09.43Zm-4-.3a1.6,1.6,0,0,1-.14.67,1.36,1.36,0,0,1-.39.5,1.82,1.82,0,0,1-.64.31,3.23,3.23,0,0,1-.87.11,3.43,3.43,0,0,1-.83-.1,1.67,1.67,0,0,1-.63-.29,1.25,1.25,0,0,1-.39-.49,1.7,1.7,0,0,1-.13-.67V5.11a.08.08,0,0,1,0-.05.15.15,0,0,1,.08,0l.16,0h.48l.15,0,.08,0a.05.05,0,0,1,0,.05v2.4a1.11,1.11,0,0,0,.07.43.86.86,0,0,0,.21.29.82.82,0,0,0,.32.17,1.37,1.37,0,0,0,.42.06A1.33,1.33,0,0,0,206,8.4a1,1,0,0,0,.32-.17,1,1,0,0,0,.2-.28,1.23,1.23,0,0,0,.07-.39V5.11a.08.08,0,0,1,0-.05.15.15,0,0,1,.08,0l.15,0h.48l.15,0s.07,0,.08,0a.05.05,0,0,1,0,.05V7.55ZM194.24,6.2a.55.55,0,0,0-.11-.34.59.59,0,0,0-.36-.19l-.17,0h-.72V6.78h.51a1.4,1.4,0,0,0,.37,0,.85.85,0,0,0,.27-.12.55.55,0,0,0,.16-.18.6.6,0,0,0,.05-.24ZM195.53,9a.13.13,0,0,1,0,.06l-.07,0-.17,0h-.56l-.15,0s-.06,0-.07-.05a.21.21,0,0,1,0-.06L194,8a2.37,2.37,0,0,0-.15-.28,1.12,1.12,0,0,0-.17-.2.78.78,0,0,0-.22-.12.79.79,0,0,0-.28,0h-.31V9a.09.09,0,0,1,0,.06s0,0-.08,0l-.15,0-.24,0-.24,0-.16,0a.2.2,0,0,1-.08,0,.14.14,0,0,1,0-.06V5.26a.23.23,0,0,1,.09-.2.33.33,0,0,1,.21-.06H194a3.47,3.47,0,0,1,.53.12,1.45,1.45,0,0,1,.41.22,1,1,0,0,1,.25.33.94.94,0,0,1,.09.43,1.16,1.16,0,0,1-.07.37.92.92,0,0,1-.18.3,1,1,0,0,1-.3.22,1.67,1.67,0,0,1-.41.16,1.39,1.39,0,0,1,.21.11l.18.15a1.16,1.16,0,0,1,.16.21,2,2,0,0,1,.15.26l.42.8a1.22,1.22,0,0,1,.07.17.18.18,0,0,1,0,.09ZM190,7a2.58,2.58,0,0,0-.06-.58,1,1,0,0,0-.21-.45,1,1,0,0,0-.39-.29,1.53,1.53,0,0,0-.61-.1,1.55,1.55,0,0,0-.61.11,1.05,1.05,0,0,0-.4.31,1.12,1.12,0,0,0-.21.44,2,2,0,0,0-.07.55,2.61,2.61,0,0,0,.06.59,1.14,1.14,0,0,0,.21.46,1,1,0,0,0,.39.29,1.75,1.75,0,0,0,.61.09,1.39,1.39,0,0,0,.61-.11,1,1,0,0,0,.4-.31,1.35,1.35,0,0,0,.22-.45A2.44,2.44,0,0,0,190,7Zm1,0a2.57,2.57,0,0,1-.15.9,1.9,1.9,0,0,1-.46.68,2,2,0,0,1-.74.42,3.17,3.17,0,0,1-1,.15,3.28,3.28,0,0,1-1-.13,1.77,1.77,0,0,1-.72-.38,1.49,1.49,0,0,1-.42-.64,2.59,2.59,0,0,1-.15-.93,2.48,2.48,0,0,1,.15-.89A2,2,0,0,1,187,5.5a2.14,2.14,0,0,1,.74-.42,3.2,3.2,0,0,1,1-.15,3.73,3.73,0,0,1,1,.12,1.8,1.8,0,0,1,.71.38,1.61,1.61,0,0,1,.43.64A2.53,2.53,0,0,1,191,7ZM179.61,8.94s0,.05,0,.06a.12.12,0,0,1-.08.05l-.16,0-.26,0-.35,0a.37.37,0,0,1-.16-.05L178.51,9,177,7V9A.14.14,0,0,1,177,9a.29.29,0,0,1-.08,0l-.15,0-.25,0-.24,0-.15,0-.08,0A.09.09,0,0,1,176,9V5.12a.06.06,0,0,1,0-.06.15.15,0,0,1,.08,0l.15,0h.49l.15,0a.15.15,0,0,1,.08,0,.08.08,0,0,1,0,.06V6.85l1.44-1.73a.23.23,0,0,1,.07-.07l.09,0,.16,0h.49l.16,0,.08,0a.07.07,0,0,1,0,.06.26.26,0,0,1,0,.11,1.38,1.38,0,0,1-.13.18L178,6.87l1.46,1.83.11.18a.15.15,0,0,1,0,.06ZM175,8.78a.28.28,0,0,1,0,.13l-.08.09a.34.34,0,0,1-.12.06h-.57l-.23,0a.42.42,0,0,1-.18-.08.61.61,0,0,1-.16-.16c-.05-.06-.1-.15-.17-.25l-1.22-1.9L172,6.29l-.19-.38h0c0,.15,0,.3,0,.45s0,.3,0,.46V9a.14.14,0,0,1,0,.06l-.07,0-.14,0-.23,0-.22,0-.13,0a.14.14,0,0,1-.07,0,.07.07,0,0,1,0-.06V5.3a.25.25,0,0,1,.1-.22.45.45,0,0,1,.26-.08h.54L172,5l.17.07a.37.37,0,0,1,.15.13,1,1,0,0,1,.14.21l1,1.48.16.27.16.26.15.26.14.25h0c0-.15,0-.3,0-.46V5.12a.08.08,0,0,1,0,0l.08-.05.14,0h.44l.14,0s0,0,.06.05,0,0,0,0V8.78ZM169.72,9a.09.09,0,0,1,0,.06l-.08,0-.15,0-.25,0-.24,0-.15,0s-.07,0-.08,0a.09.09,0,0,1,0-.06V5.11a.05.05,0,0,1,0-.05s0,0,.08,0L169,5h.49l.15,0,.08,0a.05.05,0,0,1,0,.05V9Zm-2.3,0a.09.09,0,0,1,0,.06s0,0-.08,0l-.15,0-.24,0-.24,0-.15,0s-.07,0-.08,0a.09.09,0,0,1,0-.06V7.31h-1.84V9a.09.09,0,0,1,0,.06s0,0-.07,0l-.16,0-.24,0-.24,0-.15,0s-.07,0-.08,0a.09.09,0,0,1,0-.06V5.11a.05.05,0,0,1,0-.05s0,0,.08,0l.15,0h.48l.16,0s.06,0,.07,0a.05.05,0,0,1,0,.05v1.5h1.84V5.11a.05.05,0,0,1,0-.05s0,0,.08,0l.15,0h.48l.15,0s.07,0,.08,0a.05.05,0,0,1,0,.05V9Zm34-1.37a.68.68,0,0,0-.07-.32.66.66,0,0,0-.21-.23,1,1,0,0,0-.35-.15,2.75,2.75,0,0,0-.56,0h-.74V8.28h.91a1.9,1.9,0,0,0,.44,0,.91.91,0,0,0,.3-.13.63.63,0,0,0,.21-.22.6.6,0,0,0,.07-.3ZM201.1,5.4a.6.6,0,0,0-.06-.27.48.48,0,0,0-.17-.21.91.91,0,0,0-.28-.12,2,2,0,0,0-.47,0h-.63V6.08h.7a1.27,1.27,0,0,0,.43-.06.63.63,0,0,0,.43-.36.75.75,0,0,0,0-.26Zm1.61,2.14a1.26,1.26,0,0,1-.09.49,1.28,1.28,0,0,1-.24.39,1.82,1.82,0,0,1-.38.29,2.39,2.39,0,0,1-.49.2,3.38,3.38,0,0,1-.57.12,6.53,6.53,0,0,1-.67,0h-1.63a.42.42,0,0,1-.26-.08.26.26,0,0,1-.11-.25V4.31a.27.27,0,0,1,.11-.25.42.42,0,0,1,.26-.07h1.54a5.19,5.19,0,0,1,.95.07,2.53,2.53,0,0,1,.66.24,1.13,1.13,0,0,1,.41.4,1.11,1.11,0,0,1,.14.58,1,1,0,0,1-.05.34,1.11,1.11,0,0,1-.17.3,1.05,1.05,0,0,1-.27.24,1.5,1.5,0,0,1-.36.16,1.86,1.86,0,0,1,.49.14,1.39,1.39,0,0,1,.38.25,1.14,1.14,0,0,1,.26.36,1.19,1.19,0,0,1,.09.47ZM186.07,4.41c0,.08,0,.14,0,.2a.5.5,0,0,1,0,.13l-.06.07-.08,0h-2V6.2h1.89a.12.12,0,0,1,.08,0,.17.17,0,0,1,.06.06,1.3,1.3,0,0,1,0,.13,1.15,1.15,0,0,1,0,.2,1.09,1.09,0,0,1,0,.19,1.3,1.3,0,0,1,0,.13.22.22,0,0,1-.06.07.12.12,0,0,1-.08,0h-1.89v1.9a.09.09,0,0,1,0,.07.19.19,0,0,1-.1,0l-.19,0h-.61a.69.69,0,0,1-.19,0,.19.19,0,0,1-.1,0,.08.08,0,0,1,0-.07V4.31a.3.3,0,0,1,.11-.25A.45.45,0,0,1,183,4h2.89A.11.11,0,0,1,186,4a.22.22,0,0,1,.06.07.4.4,0,0,1,0,.13s0,.12,0,.2Zm-22.76,0a1.21,1.21,0,0,1,0,.2l0,.12a.28.28,0,0,1-.06.08l-.08,0h-1.54v4.1a.13.13,0,0,1,0,.07l-.1.05-.19,0h-.61l-.19,0a.3.3,0,0,1-.1-.05.13.13,0,0,1,0-.07V4.83H158.8l-.08,0a.28.28,0,0,1-.06-.08.83.83,0,0,1,0-.12c0-.06,0-.12,0-.2s0-.15,0-.2a1,1,0,0,1,0-.13.22.22,0,0,1,.06-.07.11.11,0,0,1,.08,0h4.33a.12.12,0,0,1,.08,0,.22.22,0,0,1,.06.07,1.3,1.3,0,0,1,0,.13,1.15,1.15,0,0,1,0,.2Z"/><path class="cls-3" d="M230.42,7.85a1.13,1.13,0,0,1-.14.56,1.27,1.27,0,0,1-.4.4,1.63,1.63,0,0,1-.57.24,2.71,2.71,0,0,1-.71.09,3.58,3.58,0,0,1-.48,0L227.74,9a2,2,0,0,1-.28-.11.45.45,0,0,1-.16-.09.24.24,0,0,1-.07-.12.65.65,0,0,1,0-.22V8.32a.81.81,0,0,1,0-.11.15.15,0,0,1,0-.06l.07,0a.29.29,0,0,1,.15.06l.25.11.37.12a2.28,2.28,0,0,0,.48.05,1.06,1.06,0,0,0,.33,0,.82.82,0,0,0,.25-.1.38.38,0,0,0,.15-.16.43.43,0,0,0,.06-.22.32.32,0,0,0-.09-.23,1.08,1.08,0,0,0-.24-.18,2.18,2.18,0,0,0-.34-.14l-.38-.15a3.29,3.29,0,0,1-.39-.17,1.5,1.5,0,0,1-.33-.23,1,1,0,0,1-.24-.31,1,1,0,0,1-.09-.44,1.07,1.07,0,0,1,.13-.51,1.16,1.16,0,0,1,.36-.37A1.54,1.54,0,0,1,228.3,5a2.62,2.62,0,0,1,.64-.07l.35,0,.33.06.27.09.15.08a.12.12,0,0,1,.05.05.16.16,0,0,1,0,.06s0,0,0,.09v.29s0,.07,0,.1a.09.09,0,0,1,0,.06l-.07,0-.13,0-.22-.1-.31-.09a1.6,1.6,0,0,0-.39,0,1.11,1.11,0,0,0-.28,0,.53.53,0,0,0-.2.09.35.35,0,0,0-.13.14.47.47,0,0,0,0,.17.32.32,0,0,0,.09.23.76.76,0,0,0,.24.18l.34.14.39.15a3.29,3.29,0,0,1,.39.17,1.36,1.36,0,0,1,.34.23,1,1,0,0,1,.24.31.94.94,0,0,1,.09.43Zm-3.68,0a1.13,1.13,0,0,1-.14.56,1.35,1.35,0,0,1-.39.4,1.77,1.77,0,0,1-.58.24,2.71,2.71,0,0,1-.71.09,3.3,3.3,0,0,1-.47,0,3,3,0,0,1-.39-.08l-.28-.11a.57.57,0,0,1-.16-.09.19.19,0,0,1-.07-.12.65.65,0,0,1,0-.22V8.32a.81.81,0,0,1,0-.11.15.15,0,0,1,0-.06l.07,0a.29.29,0,0,1,.15.06l.25.11.37.12a2.31,2.31,0,0,0,.49.05,1,1,0,0,0,.32,0,.82.82,0,0,0,.25-.1.38.38,0,0,0,.15-.16.43.43,0,0,0,.06-.22.32.32,0,0,0-.09-.23.89.89,0,0,0-.24-.18A2.18,2.18,0,0,0,225,7.4l-.38-.15a2.59,2.59,0,0,1-.38-.17,1.36,1.36,0,0,1-.34-.23,1,1,0,0,1-.24-.31,1,1,0,0,1-.09-.44,1.07,1.07,0,0,1,.13-.51,1.16,1.16,0,0,1,.36-.37,1.63,1.63,0,0,1,.52-.22,2.67,2.67,0,0,1,.64-.07l.35,0,.33.06.27.09a.47.47,0,0,1,.15.08.12.12,0,0,1,0,.05.16.16,0,0,1,0,.06s0,0,0,.09v.29s0,.07,0,.1a.09.09,0,0,1,0,.06l-.07,0-.13,0-.22-.1-.31-.09a1.6,1.6,0,0,0-.39,0,1.18,1.18,0,0,0-.28,0,.53.53,0,0,0-.2.09.35.35,0,0,0-.13.14.47.47,0,0,0,0,.17.32.32,0,0,0,.09.23.76.76,0,0,0,.24.18,2.32,2.32,0,0,0,.35.14l.38.15a3.29,3.29,0,0,1,.39.17,1.36,1.36,0,0,1,.34.23,1,1,0,0,1,.24.31.94.94,0,0,1,.09.43Z"/><path class="cls-4" d="M231.5,3.29H232a.85.85,0,0,0,.53-.11.4.4,0,0,0,.14-.31.36.36,0,0,0-.07-.22.37.37,0,0,0-.18-.14,1.22,1.22,0,0,0-.45,0h-.51v.83Zm-.45,1.56h.45V3.68h.26a.6.6,0,0,1,.36.09,2.4,2.4,0,0,1,.47.64l.24.44h.55L233,4.31a3.09,3.09,0,0,0-.41-.55,1,1,0,0,0-.23-.15.84.84,0,0,0,.57-.25.75.75,0,0,0,.22-.53.76.76,0,0,0-.13-.4.71.71,0,0,0-.35-.27,2.45,2.45,0,0,0-.71-.07h-.95V4.85Zm1.13-3.57a2.23,2.23,0,0,0-1.05.28,2,2,0,0,0-.8.8A2.08,2.08,0,0,0,230,3.43a2.13,2.13,0,0,0,.28,1.06,2,2,0,0,0,.8.8,2.13,2.13,0,0,0,1.06.28,2.17,2.17,0,0,0,1.07-.28,2,2,0,0,0,.79-.8,2.13,2.13,0,0,0,.28-1.06A2.08,2.08,0,0,0,234,2.36a1.93,1.93,0,0,0-.8-.8,2.23,2.23,0,0,0-1-.28Zm0-.42a2.64,2.64,0,0,1,1.26.33,2.4,2.4,0,0,1,1,1,2.7,2.7,0,0,1,.34,1.29,2.58,2.58,0,0,1-.34,1.28,2.41,2.41,0,0,1-.95,1,2.56,2.56,0,0,1-1.28.34,2.58,2.58,0,0,1-1.28-.34,2.48,2.48,0,0,1-1-1,2.57,2.57,0,0,1,0-2.57,2.37,2.37,0,0,1,1-1,2.64,2.64,0,0,1,1.26-.33Z"/><path class="cls-2" d="M23.62,9.93H42.77v6.31H25.35a2.78,2.78,0,0,0-2.85,2.68v2.89a2.78,2.78,0,0,0,2.85,2.68h9c5.4,1,7.63,3.6,8.41,7h0V36.7a8.3,8.3,0,0,1-8.21,8.35H15.42V38.62H32.7a2.79,2.79,0,0,0,2.86-2.68V33.05a2.79,2.79,0,0,0-2.86-2.68h-9c-5.19-.94-7.45-3.39-8.31-6.54V18.28a8.3,8.3,0,0,1,8.2-8.35Z"/><path class="cls-5" d="M102.29,22.6h6.61a1.56,1.56,0,0,1,.64.51,31,31,0,0,1,1.65,3.06c1.67,3.36,3.52,6.65,5.28,10v8.91h-16c-7.39-.89-12.11-5.69-13.9-13.89C85,22.39,88.74,11.49,99.48,9.93h17.07v7.35H99.21c-2.12.25-4,2.54-5.23,5.17a11.86,11.86,0,0,0,2,12.46,6.86,6.86,0,0,0,5.47,2.18l6.86-.08.18-1.13-6.07-12.32-.1-1Z"/><polygon class="cls-2" points="118.77 9.93 126.26 9.93 126.26 25.22 139.06 25.22 139.06 9.93 146.56 9.93 146.56 45.05 139.06 45.05 139.06 32.25 126.26 32.25 126.26 45.05 118.77 45.05 118.77 9.93 118.77 9.93"/><polygon class="cls-6" points="149.99 3.02 157.48 3.02 157.48 12.98 163.78 12.98 163.78 19.84 157.48 19.84 157.48 45.2 149.99 45.2 149.99 3.02 149.99 3.02"/><path class="cls-7" d="M173.24,26l16.06-6.8c-.11-1.1-1-1.59-2.5-1.67h-9.18c-3.14-.16-4.4.79-4.38,2.5v6Zm2-16.08h12.27a9.47,9.47,0,0,1,9.5,9.38v4.42L173.22,34.1c-.27,1.39.86,3.28,2,3.44h22.18v7.52H175.25a9.48,9.48,0,0,1-9.5-9.39V19.31a9.12,9.12,0,0,1,3.12-6.94,11.23,11.23,0,0,1,6.38-2.44Z"/><polygon class="cls-8" points="198.62 9.93 206.7 9.93 206.7 45.05 198.62 45.05 198.62 9.93 198.62 9.93"/><polygon class="cls-8" points="218.81 9.93 207.37 22.54 207.35 32.04 218.75 45.05 230.36 45.06 215.08 27.28 230.32 9.93 218.81 9.93 218.81 9.93"/><polygon class="cls-9" points="51.6 16.25 44.36 16.25 44.36 9.93 51.6 9.93 51.6 16.25 51.6 16.25"/><path class="cls-2" d="M44.38,16.42V45.05h7.33V24.3c0-4.78-3.4-6.06-3.4-6.06l-3.93-1.82Z"/><path class="cls-10" d="M15.33,58.3V52.22A2.06,2.06,0,0,1,16,50.51,3.42,3.42,0,0,1,18,50h3.5v1.19h-4l-.24.05a.78.78,0,0,0-.56.81v1.52h4.8V54.8h-4.8v3.5Zm7.24,0V50h1.35V58.3Zm3,0V51.19q0-1.23,1.11-1.23a1.72,1.72,0,0,1,.43,0,1.2,1.2,0,0,1,.83.79l2.84,6.11V50h1.35v7.27a1,1,0,0,1-.3.74,1.14,1.14,0,0,1-.77.36,1.24,1.24,0,0,1-1.33-.83l-2.82-6V58.3ZM33,51.23V50h5.37v1.19h-2V58.3H35V51.23Zm6.28,4.85v-4A1.82,1.82,0,0,1,40,50.48,3.63,3.63,0,0,1,42,50h3.41v1.19H41.49a.78.78,0,0,0-.62.29.93.93,0,0,0-.24.62v1.41h4.78v1.19H40.63v1.62a.55.55,0,0,0,.07.24.85.85,0,0,0,.6.46,3.76,3.76,0,0,0,.83,0h3.25V58.3H41.77c-1.66,0-2.48-.74-2.48-2.22Zm7.58.24V52.07a2,2,0,0,1,.59-1.46A2.16,2.16,0,0,1,49,50H53v1.19H49.21c-.66,0-1,.29-1,.88v4.12a.81.81,0,0,0,.29.62,1,1,0,0,0,.7.26h3.72V58.3h-4A2.26,2.26,0,0,1,47.75,58a1.77,1.77,0,0,1-.88-1.63Zm7.44,2V50h1.35v3.57h4.08V50h1.34V58.3H59.74V54.8H55.66v3.5Z"/><path class="cls-10" d="M15.17,58.3V52.22a3,3,0,0,1,.18-1.08,1.7,1.7,0,0,1,.55-.76h0a2.3,2.3,0,0,1,.88-.38A5.57,5.57,0,0,1,18,49.88h3.66V51.4H17.41l-.12,0a.64.64,0,0,0-.33.23.69.69,0,0,0-.11.42v1.35h4.79V55H16.85v3.51H15.17V58.3Zm.33-6.08v5.92h1V54.63h4.8v-.86h-4.8V52.09a1.09,1.09,0,0,1,.17-.61,1.08,1.08,0,0,1,.51-.36l.16,0,.11,0h3.88v-.86H18a5,5,0,0,0-1.16.11,1.85,1.85,0,0,0-.75.33,1.34,1.34,0,0,0-.45.61,2.76,2.76,0,0,0-.15,1Zm6.91,6.08V49.88h1.67v8.59H22.41V58.3Zm.33-8.09v7.93h1V50.21Zm2.65,8.09V51.19a1.54,1.54,0,0,1,.32-1,1.24,1.24,0,0,1,1-.36,2.68,2.68,0,0,1,.46.05h0a1.28,1.28,0,0,1,.56.3,1.89,1.89,0,0,1,.39.59l2.52,5.43V49.88h1.68v7.43a1.39,1.39,0,0,1-.08.46,1.21,1.21,0,0,1-.26.39,1.24,1.24,0,0,1-.39.29,1.41,1.41,0,0,1-.48.12,1.34,1.34,0,0,1-.89-.18,1.66,1.66,0,0,1-.61-.73l-2.5-5.3v6.11H25.39V58.3Zm.33-7.11v7h1V51.62l.31-.07,2.82,6a1.31,1.31,0,0,0,.49.6,1.06,1.06,0,0,0,.67.14,1.41,1.41,0,0,0,.38-.1.86.86,0,0,0,.29-.21.85.85,0,0,0,.19-.29.93.93,0,0,0,.06-.34v-7.1h-1v6.7l-.32.07-2.84-6.11a1.54,1.54,0,0,0-.32-.49.83.83,0,0,0-.39-.21,2.08,2.08,0,0,0-.4-.05.91.91,0,0,0-.71.26,1.15,1.15,0,0,0-.24.81Zm7.12,0V49.88h5.71V51.4h-2v7.07H34.86V51.4h-2v-.17Zm.34-1v.86h2v7.07h1V51.07h2v-.86Zm5.94,5.87v-4a2.62,2.62,0,0,1,.2-1,1.74,1.74,0,0,1,.62-.72,2.61,2.61,0,0,1,.88-.35A5.3,5.3,0,0,1,42,49.88h3.58V51.4h-4.1a.76.76,0,0,0-.27.05.72.72,0,0,0-.22.17.83.83,0,0,0-.15.25.86.86,0,0,0-.05.27v1.24h4.77V54.9H40.8v1.46a.22.22,0,0,0,0,.08.59.59,0,0,0,0,.08.63.63,0,0,0,.2.25.7.7,0,0,0,.29.13,1.31,1.31,0,0,0,.28,0h3.93v1.52H41.77a2.85,2.85,0,0,1-2-.6,2.28,2.28,0,0,1-.68-1.79Zm.33-4v4A2,2,0,0,0,40,57.63a2.56,2.56,0,0,0,1.75.51h3.44v-.86H42.13l-.53,0a2.36,2.36,0,0,1-.34,0,1.2,1.2,0,0,1-.41-.2,1,1,0,0,1-.29-.35,1,1,0,0,1-.07-.15,1,1,0,0,1,0-.17V54.57h4.77v-.86H40.47V52.14a1,1,0,0,1,.07-.38,1.25,1.25,0,0,1,.21-.35.93.93,0,0,1,.33-.26,1.07,1.07,0,0,1,.41-.08h3.76v-.86H42a5.29,5.29,0,0,0-1.12.1,2.32,2.32,0,0,0-.76.3,1.45,1.45,0,0,0-.51.59,2.24,2.24,0,0,0-.17.91Zm7.26,4.21V52.07a2.28,2.28,0,0,1,.16-.87,1.92,1.92,0,0,1,.47-.7,2.11,2.11,0,0,1,.75-.47,2.81,2.81,0,0,1,.94-.15h4.09V51.4H49.21a.91.91,0,0,0-.63.18.65.65,0,0,0-.19.53v4.12a.64.64,0,0,0,.23.5.71.71,0,0,0,.26.16.88.88,0,0,0,.33.06h3.88v1.52H48.93a2,2,0,0,1-.63-.1,2.49,2.49,0,0,1-.63-.28,1.87,1.87,0,0,1-.72-.73,2.16,2.16,0,0,1-.24-1ZM47,52.07v4.25a1.84,1.84,0,0,0,.2.88,1.53,1.53,0,0,0,.6.61,2.94,2.94,0,0,0,.55.25,2,2,0,0,0,.54.08h3.83v-.86H49.21a1.23,1.23,0,0,1-.44-.08,1.11,1.11,0,0,1-.72-1V52.11a1,1,0,0,1,.31-.78,1.2,1.2,0,0,1,.85-.26h3.58v-.86H49a2.41,2.41,0,0,0-.83.13,1.79,1.79,0,0,0-1,1,2,2,0,0,0-.13.74Zm7.11,6.23V49.88h1.67v3.56h3.75V49.88h1.68v8.59H59.57V55H55.82v3.51H54.15V58.3Zm.33-8.09v7.93h1V54.63H59.9v3.51h1V50.21h-1v3.56H55.49V50.21Z"/><path class="cls-7" d="M69.72,58.3v-7a1.16,1.16,0,0,1,.64-1.2,2,2,0,0,1,.79-.17,1.25,1.25,0,0,1,1.23,1l2,6,2-6.06a1.28,1.28,0,0,1,1.24-1,2,2,0,0,1,.79.17,1.15,1.15,0,0,1,.63,1.2v7H77.72V51.23L75.64,57.4a1.77,1.77,0,0,1-.41.73,1.14,1.14,0,0,1-.83.28,1.12,1.12,0,0,1-.82-.28,1.9,1.9,0,0,1-.42-.73l-2.09-6.17V58.3Zm10,0,3.11-7.49c.24-.57.59-.85,1-.85a1.2,1.2,0,0,1,1.13.86l3.08,7.48H86.69L86,56.58h-4L81.2,58.3Zm5.72-2.91-1.56-3.76L82.4,55.39Zm3.35,2.91V51.19q0-1.23,1.11-1.23a1.78,1.78,0,0,1,.43,0,1.2,1.2,0,0,1,.83.79L94,56.91V50h1.35v7.27a1,1,0,0,1-.3.74,1.14,1.14,0,0,1-.77.36A1.24,1.24,0,0,1,93,57.58l-2.82-6V58.3Zm7.25,0,3.11-7.49c.24-.57.58-.85,1-.85a1.2,1.2,0,0,1,1.13.86l3.08,7.48H103l-.72-1.72h-4l-.73,1.72Zm5.71-2.91-1.55-3.76-1.52,3.76Zm3.35.78v-4c0-1.44.83-2.17,2.5-2.17h3.57v1.19h-3.79l-.06,0a1.06,1.06,0,0,0-.68.25.86.86,0,0,0-.19.63v4.11a1.5,1.5,0,0,0,0,.18.8.8,0,0,0,.72.69h2.24c.57,0,.9-.24,1-.72a.35.35,0,0,0,0-.13V53.59h1.34v2.54a2.24,2.24,0,0,1-.21,1.06,2,2,0,0,1-.83.87,3,3,0,0,1-1.3.24h-1.87a2.9,2.9,0,0,1-1.19-.2,1.86,1.86,0,0,1-1.28-1.93Zm8.31-.09v-4a1.8,1.8,0,0,1,.75-1.63,3.57,3.57,0,0,1,2-.44h3.41v1.19h-3.93a.76.76,0,0,0-.61.29.93.93,0,0,0-.24.62v1.41h4.77v1.19H114.8v1.62a.53.53,0,0,0,.06.24.89.89,0,0,0,.6.46,3.76,3.76,0,0,0,.83,0h3.25V58.3h-3.61c-1.65,0-2.48-.74-2.48-2.22ZM121,58.3v-7a1.16,1.16,0,0,1,.64-1.2,2,2,0,0,1,.79-.17,1.25,1.25,0,0,1,1.23,1l2,6,2.06-6.06a1.28,1.28,0,0,1,1.24-1,2,2,0,0,1,.79.17,1.15,1.15,0,0,1,.63,1.2v7H129V51.23L127,57.4a1.77,1.77,0,0,1-.41.73,1.14,1.14,0,0,1-.83.28,1.12,1.12,0,0,1-.82-.28,1.9,1.9,0,0,1-.42-.73l-2.09-6.17V58.3Zm11-2.22v-4a1.8,1.8,0,0,1,.75-1.63,3.59,3.59,0,0,1,2-.44h3.42v1.19H134.2a.78.78,0,0,0-.61.29.93.93,0,0,0-.24.62v1.41h4.77v1.19h-4.77v1.62a.44.44,0,0,0,.07.24.85.85,0,0,0,.6.46,3.71,3.71,0,0,0,.82,0h3.26V58.3h-3.62c-1.65,0-2.48-.74-2.48-2.22Zm7.59,2.22V51.19c0-.82.37-1.23,1.12-1.23a1.7,1.7,0,0,1,.42,0,1.2,1.2,0,0,1,.83.79l2.84,6.11V50h1.35v7.27a1.06,1.06,0,0,1-.29.74,1.19,1.19,0,0,1-.78.36,1.25,1.25,0,0,1-1.33-.83l-2.81-6V58.3ZM147,51.23V50h5.37v1.19h-2V58.3h-1.35V51.23Z"/><path class="cls-11" d="M69.62,58.3v-7a1.81,1.81,0,0,1,.17-.82,1,1,0,0,1,.53-.47,2,2,0,0,1,.43-.14,1.9,1.9,0,0,1,.4,0,1.27,1.27,0,0,1,.83.29,1.66,1.66,0,0,1,.5.82l1.88,5.75,2-5.75a1.85,1.85,0,0,1,.52-.83,1.27,1.27,0,0,1,.82-.28,1.9,1.9,0,0,1,.4,0,2,2,0,0,1,.43.14,1,1,0,0,1,.53.47,1.81,1.81,0,0,1,.17.82v7.16H77.62V51.88l-1.88,5.55a3.21,3.21,0,0,1-.19.45,1.23,1.23,0,0,1-.25.32,1,1,0,0,1-.39.24,1.6,1.6,0,0,1-.51.08,1.25,1.25,0,0,1-.9-.32,1.77,1.77,0,0,1-.24-.32,3.18,3.18,0,0,1-.2-.45l-1.88-5.56v6.54H69.62V58.3Zm.21-7v7H71v-7l.2,0,2.09,6.16a2.38,2.38,0,0,0,.19.42,1.18,1.18,0,0,0,.2.27h0a1,1,0,0,0,.75.25,1.42,1.42,0,0,0,.44-.06.85.85,0,0,0,.32-.19h0a1.18,1.18,0,0,0,.2-.27,1.83,1.83,0,0,0,.18-.42l2.08-6.16.21,0v7H79v-7a1.49,1.49,0,0,0-.14-.72.78.78,0,0,0-.42-.38A2.23,2.23,0,0,0,78,50a2.2,2.2,0,0,0-.36,0,1,1,0,0,0-.69.24,1.58,1.58,0,0,0-.45.73l-2.06,6h-.19l-2-6a1.49,1.49,0,0,0-.44-.73,1,1,0,0,0-.69-.24,2.09,2.09,0,0,0-.35,0,2.32,2.32,0,0,0-.4.13.78.78,0,0,0-.42.38,1.48,1.48,0,0,0-.15.72Zm9.84,7,3.1-7.49a1.81,1.81,0,0,1,.47-.68,1,1,0,0,1,.67-.24,1.16,1.16,0,0,1,.73.24,1.55,1.55,0,0,1,.5.69l3.14,7.63H86.62l-.72-1.72H82l-.72,1.72H79.61l.06-.15ZM83,50.85l-3,7.35h1.21l.73-1.72H86l.72,1.72H88l-3-7.34a1.33,1.33,0,0,0-.43-.6,1,1,0,0,0-.6-.2.84.84,0,0,0-.53.19,1.47,1.47,0,0,0-.41.6Zm2.35,4.43-1.4-3.37-1.36,3.37ZM84,51.59l1.61,3.9H82.25l1.57-3.9Zm4.7,6.71V51.19a1.38,1.38,0,0,1,.31-1,1.17,1.17,0,0,1,.91-.35,2.68,2.68,0,0,1,.45,0h0a1.11,1.11,0,0,1,.52.28,1.84,1.84,0,0,1,.39.58l2.63,5.67V49.94h1.56v7.37a1.27,1.27,0,0,1-.08.44,1.24,1.24,0,0,1-.61.64,1.21,1.21,0,0,1-.47.12,1.29,1.29,0,0,1-.85-.17,1.77,1.77,0,0,1-.59-.71l-2.61-5.54v6.32H88.72V58.3Zm.21-7.11v7h1.14V51.62l.2,0,2.81,6a1.42,1.42,0,0,0,.52.62,1.1,1.1,0,0,0,.71.15,1.24,1.24,0,0,0,.4-.11A1,1,0,0,0,95,58a1.49,1.49,0,0,0,.2-.31,1,1,0,0,0,.06-.36V50.15H94.15v6.76l-.21,0-2.83-6.11a1.62,1.62,0,0,0-.34-.5.88.88,0,0,0-.42-.23,2.27,2.27,0,0,0-.41,0,1,1,0,0,0-.76.28,1.25,1.25,0,0,0-.25.85Zm7,7.07,3.11-7.49a1.71,1.71,0,0,1,.47-.68,1,1,0,0,1,.67-.24,1.16,1.16,0,0,1,.73.24,1.63,1.63,0,0,1,.5.69l3.13,7.63h-1.66l-.72-1.72h-3.9l-.73,1.72H95.92l.06-.15Zm3.3-7.41-3,7.35h1.2l.73-1.72h4.18l.72,1.72h1.21l-3-7.34a1.41,1.41,0,0,0-.43-.6,1,1,0,0,0-.6-.2.87.87,0,0,0-.54.19,1.58,1.58,0,0,0-.41.6Zm2.36,4.43-1.4-3.37-1.36,3.37Zm-1.31-3.69,1.62,3.9H98.56l1.58-3.9ZM105,56.17v-4a2.16,2.16,0,0,1,.66-1.71,2.92,2.92,0,0,1,1.94-.56h3.67v1.4h-4a1.63,1.63,0,0,0-.38.09.56.56,0,0,0-.23.13.47.47,0,0,0-.11.21,1.2,1.2,0,0,0,0,.35v4.15l0,.12a.76.76,0,0,0,.2.41.92.92,0,0,0,.42.2h2.24c.51,0,.81-.21.88-.64h0V53.49h1.56v2.64a2.29,2.29,0,0,1-.23,1.11,2.08,2.08,0,0,1-.39.55,1.88,1.88,0,0,1-.49.36,2.35,2.35,0,0,1-.6.2,4.18,4.18,0,0,1-.74.06h-1.87a4.61,4.61,0,0,1-.68,0,2.56,2.56,0,0,1-.55-.16h0a3.27,3.27,0,0,1-.62-.36,1.76,1.76,0,0,1-.42-.45,1.82,1.82,0,0,1-.23-.55,2.76,2.76,0,0,1-.07-.67Zm.21-4v4a2.35,2.35,0,0,0,.07.62,1.44,1.44,0,0,0,.2.49,1.5,1.5,0,0,0,.37.39,3.06,3.06,0,0,0,.58.34,2.18,2.18,0,0,0,.49.14,4.29,4.29,0,0,0,.65.05h1.87a3.73,3.73,0,0,0,.7-.06,2.09,2.09,0,0,0,.55-.18,1.46,1.46,0,0,0,.43-.32,2.22,2.22,0,0,0,.36-.5,2.15,2.15,0,0,0,.2-1V53.7h-1.14v2.65a.2.2,0,0,0,0,.07,1,1,0,0,1-1.09.8h-2.26a1,1,0,0,1-.54-.26.93.93,0,0,1-.27-.53l0-.11a.54.54,0,0,0,0-.08V52.13a1.31,1.31,0,0,1,.06-.41.63.63,0,0,1,.16-.29.81.81,0,0,1,.3-.19,1.78,1.78,0,0,1,.44-.1h3.76v-1h-3.46a2.69,2.69,0,0,0-1.8.51,2,2,0,0,0-.59,1.55Zm8.09,3.87v-4a2.44,2.44,0,0,1,.2-1,1.63,1.63,0,0,1,.6-.7,2.44,2.44,0,0,1,.85-.34,5.2,5.2,0,0,1,1.18-.11h3.52v1.4h-4a.73.73,0,0,0-.3.06.66.66,0,0,0-.23.18,1,1,0,0,0-.17.27.93.93,0,0,0,0,.29v1.3h4.77v1.4H114.9v1.52a.28.28,0,0,0,0,.09,1,1,0,0,0,0,.1.87.87,0,0,0,.23.27.74.74,0,0,0,.31.14.94.94,0,0,0,.28,0l.52,0h3.36v1.4h-3.72a2.8,2.8,0,0,1-1.93-.58,2.21,2.21,0,0,1-.66-1.75Zm.21-4v4a2,2,0,0,0,.59,1.59,2.62,2.62,0,0,0,1.79.53h3.51v-1h-3.68l-.32,0a1,1,0,0,1-.39-.19.91.91,0,0,1-.28-.33.35.35,0,0,1-.06-.14.77.77,0,0,1,0-.15V54.63h4.77v-1h-4.77V52.14a.89.89,0,0,1,.07-.36,1.09,1.09,0,0,1,.19-.33.87.87,0,0,1,.31-.24.85.85,0,0,1,.39-.08h3.83v-1h-3.31a5.33,5.33,0,0,0-1.13.1,2.29,2.29,0,0,0-.79.32,1.41,1.41,0,0,0-.52.61,2.14,2.14,0,0,0-.18.93Zm7.38,6.19v-7a1.81,1.81,0,0,1,.17-.82,1,1,0,0,1,.53-.47,2,2,0,0,1,.43-.14,1.9,1.9,0,0,1,.4,0,1.23,1.23,0,0,1,.82.29,1.61,1.61,0,0,1,.51.82l1.88,5.75,2-5.75a1.85,1.85,0,0,1,.52-.83,1.27,1.27,0,0,1,.82-.28,1.9,1.9,0,0,1,.4,0,2,2,0,0,1,.43.14,1,1,0,0,1,.52.47,1.69,1.69,0,0,1,.17.82v7.16h-1.55V51.88l-1.88,5.55a2.34,2.34,0,0,1-.2.45,1,1,0,0,1-.24.32,1,1,0,0,1-.39.24,1.6,1.6,0,0,1-.51.08,1.25,1.25,0,0,1-.9-.32,1.77,1.77,0,0,1-.24-.32,3.18,3.18,0,0,1-.2-.45l-1.88-5.56v6.54h-1.56V58.3Zm.21-7v7h1.13v-7l.21,0,2.09,6.16a3.52,3.52,0,0,0,.18.42,1.59,1.59,0,0,0,.21.27h0a1,1,0,0,0,.75.25,1.42,1.42,0,0,0,.44-.06.85.85,0,0,0,.32-.19h0a1.18,1.18,0,0,0,.2-.27,1.83,1.83,0,0,0,.18-.42l2.08-6.16.21,0v7h1.13v-7a1.62,1.62,0,0,0-.14-.72.78.78,0,0,0-.42-.38,2.54,2.54,0,0,0-.39-.13,2.33,2.33,0,0,0-.36,0,1,1,0,0,0-.69.24,1.58,1.58,0,0,0-.45.73l-2.06,6h-.2l-2-6a1.49,1.49,0,0,0-.44-.73,1,1,0,0,0-.69-.24,2.33,2.33,0,0,0-.36,0,2.54,2.54,0,0,0-.39.13.78.78,0,0,0-.42.38,1.48,1.48,0,0,0-.15.72Zm10.76,4.83v-4a2.29,2.29,0,0,1,.2-1,1.67,1.67,0,0,1,.59-.7,2.5,2.5,0,0,1,.86-.34,5.17,5.17,0,0,1,1.17-.11h3.52v1.4h-4a.72.72,0,0,0-.29.06.69.69,0,0,0-.24.18,1.28,1.28,0,0,0-.16.27.71.71,0,0,0,0,.29v1.3h4.77v1.4h-4.77v1.52a.28.28,0,0,0,0,.09.3.3,0,0,0,0,.1.84.84,0,0,0,.22.27A.8.8,0,0,0,134,57a1,1,0,0,0,.29,0l.51,0h3.36v1.4h-3.72a2.82,2.82,0,0,1-1.93-.58,2.24,2.24,0,0,1-.65-1.75Zm.21-4v4a2.06,2.06,0,0,0,.58,1.59,2.64,2.64,0,0,0,1.79.53H138v-1h-3.67l-.33,0a1.18,1.18,0,0,1-.39-.19.89.89,0,0,1-.27-.33.35.35,0,0,1-.06-.14.39.39,0,0,1,0-.15V54.63H138v-1h-4.77V52.14a1.09,1.09,0,0,1,.06-.36,1.12,1.12,0,0,1,.2-.33.79.79,0,0,1,.31-.24.84.84,0,0,1,.38-.08H138v-1h-3.31a5.39,5.39,0,0,0-1.13.1,2.32,2.32,0,0,0-.78.32,1.35,1.35,0,0,0-.52.61,2.14,2.14,0,0,0-.18.93Zm7.37,6.19V51.19a1.43,1.43,0,0,1,.31-1,1.18,1.18,0,0,1,.92-.35,2.69,2.69,0,0,1,.44,0h0a1.14,1.14,0,0,1,.53.28,2,2,0,0,1,.38.58l2.64,5.67V49.94h1.55v7.37a1.2,1.2,0,0,1-.69,1.08,1.21,1.21,0,0,1-.47.12,1.25,1.25,0,0,1-.84-.17,1.71,1.71,0,0,1-.6-.71L141,52.09v6.32h-1.56V58.3Zm.22-7.11v7h1.13V51.62l.2,0,2.81,6a1.42,1.42,0,0,0,.52.62,1.12,1.12,0,0,0,.71.15,1.24,1.24,0,0,0,.4-.11,1,1,0,0,0,.31-.22,1.17,1.17,0,0,0,.2-.31,1,1,0,0,0,.06-.36V50.15h-1.13v6.76l-.2,0-2.84-6.11a1.62,1.62,0,0,0-.34-.5.8.8,0,0,0-.42-.23,2.17,2.17,0,0,0-.4,0,.93.93,0,0,0-.76.28,1.2,1.2,0,0,0-.25.85Zm7.24,0V49.94h5.58v1.4h-2v7.07H149V51.34h-2v-.11Zm.21-1.08v1h2V58.2h1.14V51.13h2v-1Z"/><path class="cls-12" d="M160.92,56.32V52.07a2,2,0,0,1,.59-1.46,2.15,2.15,0,0,1,1.57-.57H167v1.19h-3.75c-.65,0-1,.29-1,.88v4.12a.8.8,0,0,0,.28.62,1,1,0,0,0,.7.26H167V58.3h-4A2.25,2.25,0,0,1,161.8,58a1.75,1.75,0,0,1-.88-1.63Zm7.44-.33V52.35a2.13,2.13,0,0,1,.72-1.8A3.54,3.54,0,0,1,171.2,50h1a3.54,3.54,0,0,1,2.12.51,2.13,2.13,0,0,1,.72,1.8V56a2.15,2.15,0,0,1-.72,1.81,3.62,3.62,0,0,1-2.12.5h-1a2.67,2.67,0,0,1-2.53-1.15,2.19,2.19,0,0,1-.31-1.16ZM171,57.11h1.45a1.63,1.63,0,0,0,1-.22,1,1,0,0,0,.29-.83V52.31a1.1,1.1,0,0,0-.28-.85,1.63,1.63,0,0,0-1-.23H171a1.69,1.69,0,0,0-1,.23,1,1,0,0,0-.29.85V56a1,1,0,0,0,.29.84,1.62,1.62,0,0,0,1,.23Zm5.69,1.19V51.19c0-.82.37-1.23,1.12-1.23a1.7,1.7,0,0,1,.42,0,1.23,1.23,0,0,1,.84.79l2.83,6.11V50h1.35v7.27a1.06,1.06,0,0,1-.29.74,1.19,1.19,0,0,1-.78.36,1.25,1.25,0,0,1-1.33-.83l-2.81-6V58.3Zm7.93,0V57.11h3.87a.87.87,0,0,0,.52-.22.57.57,0,0,0,.24-.45V55.38c0-.39-.28-.61-.84-.68h-1.55a2.72,2.72,0,0,1-1.54-.43,1.44,1.44,0,0,1-.7-1.24V52a1.76,1.76,0,0,1,1.15-1.78,3.05,3.05,0,0,1,1.09-.15h3.79v1.19h-3.92l-.07,0c-.46.06-.69.28-.69.67v.81a.77.77,0,0,0,.88.86h1.64a2.35,2.35,0,0,1,1.14.28,1.46,1.46,0,0,1,1,1.32v1.3a1.63,1.63,0,0,1-.86,1.47,2.29,2.29,0,0,1-1.24.34Zm7.39-2V50h1.34v6.08a.9.9,0,0,0,1,1h1.92a1.17,1.17,0,0,0,.78-.21.91.91,0,0,0,.23-.71V50h1.35v6.23a1.87,1.87,0,0,1-1.36,1.88,2.35,2.35,0,0,1-.8.15h-2.32a2.52,2.52,0,0,1-.83-.15A1.85,1.85,0,0,1,192,56.27Zm8.28,0V50h1.34v6.17a.83.83,0,0,0,.26.7,1.41,1.41,0,0,0,.83.2h3.54V58.3h-3.51a2.74,2.74,0,0,1-1.8-.52,1.87,1.87,0,0,1-.66-1.55Zm6.13-5V50h5.37v1.19h-2V58.3h-1.35V51.23Zm6.28,7.07V50H214V58.3Zm3,0V51.19c0-.82.37-1.23,1.12-1.23a1.7,1.7,0,0,1,.42,0,1.23,1.23,0,0,1,.84.79l2.83,6.11V50h1.35v7.27a1.06,1.06,0,0,1-.29.74,1.19,1.19,0,0,1-.78.36,1.25,1.25,0,0,1-1.33-.83l-2.81-6V58.3Zm8.19-2.13v-4c0-1.44.83-2.17,2.49-2.17h3.57v1.19h-3.78l-.07,0a1.06,1.06,0,0,0-.68.25.91.91,0,0,0-.19.63v4.11a1.5,1.5,0,0,0,0,.18.8.8,0,0,0,.72.69h2.24q.87,0,1-.72s0-.07,0-.13V53.59h1.35v2.54a2.23,2.23,0,0,1-.22,1.06,2,2,0,0,1-.83.87,3,3,0,0,1-1.3.24h-1.87a2.82,2.82,0,0,1-1.18-.2,2.21,2.21,0,0,1-1-.76,2.16,2.16,0,0,1-.28-1.17Z"/><path class="cls-12" d="M160.76,56.32V52.07a2.49,2.49,0,0,1,.15-.87,2.08,2.08,0,0,1,.48-.7,2,2,0,0,1,.75-.47,2.77,2.77,0,0,1,.94-.15h4.08V51.4h-3.91a1,1,0,0,0-.63.18.68.68,0,0,0-.19.53v4.12a.6.6,0,0,0,.06.27.91.91,0,0,0,.17.23.74.74,0,0,0,.27.16.87.87,0,0,0,.32.06h3.89v1.52H163a2,2,0,0,1-.62-.1,2.49,2.49,0,0,1-.63-.28,1.87,1.87,0,0,1-.72-.73,2.16,2.16,0,0,1-.24-1Zm.33-4.25v4.25a1.74,1.74,0,0,0,.2.88,1.57,1.57,0,0,0,.59.61,3,3,0,0,0,.56.25,2,2,0,0,0,.53.08h3.84v-.86h-3.56a1.22,1.22,0,0,1-.43-.08,1.08,1.08,0,0,1-.38-.23,1,1,0,0,1-.25-.34.9.9,0,0,1-.09-.4V52.11a1,1,0,0,1,.3-.78,1.22,1.22,0,0,1,.85-.26h3.58v-.86h-3.75a2.37,2.37,0,0,0-.83.13,1.86,1.86,0,0,0-.63.39,1.71,1.71,0,0,0-.4.6,2,2,0,0,0-.13.74Zm7.1,3.92V52.35a2.3,2.3,0,0,1,.79-1.93h0a2.35,2.35,0,0,1,.93-.41,5.51,5.51,0,0,1,1.29-.13h1a5.4,5.4,0,0,1,1.29.13,2.35,2.35,0,0,1,.93.41h0a1.85,1.85,0,0,1,.59.8,3,3,0,0,1,.19,1.13V56a2.31,2.31,0,0,1-.78,1.94h0a2.5,2.5,0,0,1-.93.41,5.4,5.4,0,0,1-1.29.13h-1a2.84,2.84,0,0,1-2.68-1.24,2,2,0,0,1-.24-.59,2.32,2.32,0,0,1-.09-.65Zm.33-3.64V56a2.12,2.12,0,0,0,.08.57,1.67,1.67,0,0,0,.21.5,2.53,2.53,0,0,0,2.39,1.08h1a5.41,5.41,0,0,0,1.22-.12,2.16,2.16,0,0,0,.81-.36A2,2,0,0,0,174.9,56V52.35a2.77,2.77,0,0,0-.17-1,1.61,1.61,0,0,0-.48-.66,2.33,2.33,0,0,0-.81-.35,5.41,5.41,0,0,0-1.22-.12h-1a5.32,5.32,0,0,0-1.21.12,2.33,2.33,0,0,0-.81.35,2,2,0,0,0-.66,1.67ZM171,57h1.45a2.15,2.15,0,0,0,.55-.06.84.84,0,0,0,.33-.13.57.57,0,0,0,.16-.25,1.4,1.4,0,0,0,.06-.45V52.31a1.53,1.53,0,0,0-.06-.47.49.49,0,0,0-.16-.25.73.73,0,0,0-.32-.14,2.9,2.9,0,0,0-.56-.05H171a3.1,3.1,0,0,0-.57.05.84.84,0,0,0-.33.14.58.58,0,0,0-.17.25,1.58,1.58,0,0,0-.06.47V56a1.51,1.51,0,0,0,.06.46.58.58,0,0,0,.17.25.84.84,0,0,0,.33.14A2.37,2.37,0,0,0,171,57Zm1.45.33H171a3,3,0,0,1-.64-.06,1.31,1.31,0,0,1-.46-.21h0a.79.79,0,0,1-.28-.4,1.91,1.91,0,0,1-.08-.57V52.31a1.91,1.91,0,0,1,.08-.57.82.82,0,0,1,.28-.41,1.09,1.09,0,0,1,.46-.2,3,3,0,0,1,.64-.06h1.45a3,3,0,0,1,.64.06.94.94,0,0,1,.45.21.76.76,0,0,1,.26.4,1.64,1.64,0,0,1,.08.57v3.75a1.54,1.54,0,0,1-.08.56.89.89,0,0,1-.27.4,1.25,1.25,0,0,1-.45.2,2.93,2.93,0,0,1-.63.06Zm4.08,1V51.19a1.45,1.45,0,0,1,.32-1,1.21,1.21,0,0,1,1-.37,2.68,2.68,0,0,1,.45.05h0a1.22,1.22,0,0,1,.56.3,2.1,2.1,0,0,1,.4.59l2.52,5.43V49.88h1.67v7.43a1.17,1.17,0,0,1-.08.46,1.36,1.36,0,0,1-.25.39,1.25,1.25,0,0,1-.88.41,1.31,1.31,0,0,1-.88-.18,1.68,1.68,0,0,1-.62-.73l-2.5-5.3v6.11h-1.67V58.3Zm.33-7.11v7h1V51.62l.32-.07,2.81,6a1.37,1.37,0,0,0,.49.6,1.09,1.09,0,0,0,.68.14,1.51,1.51,0,0,0,.38-.1,1,1,0,0,0,.29-.21,1,1,0,0,0,.18-.29.93.93,0,0,0,.06-.34v-7.1h-1v6.7l-.32.07-2.83-6.11a1.74,1.74,0,0,0-.33-.49.83.83,0,0,0-.39-.21,2.08,2.08,0,0,0-.39-.05.92.92,0,0,0-.72.26,1.15,1.15,0,0,0-.23.81Zm7.6,7.11V57h4a.79.79,0,0,0,.22-.06,1.13,1.13,0,0,0,.21-.12.83.83,0,0,0,.13-.16.35.35,0,0,0,0-.17V55.38a.4.4,0,0,0-.15-.33,1.06,1.06,0,0,0-.54-.18h-1.53a2.84,2.84,0,0,1-1.63-.47h0a1.74,1.74,0,0,1-.58-.6,1.54,1.54,0,0,1-.19-.77V52a2.15,2.15,0,0,1,.31-1.19,2,2,0,0,1,.94-.74,1.93,1.93,0,0,1,.5-.12,4.28,4.28,0,0,1,.65,0h3.95V51.4h-4.14a.68.68,0,0,0-.41.17.46.46,0,0,0-.13.34v.81a.73.73,0,0,0,.17.53.79.79,0,0,0,.55.17h1.64a2.59,2.59,0,0,1,.63.07,2.63,2.63,0,0,1,.59.22,2.17,2.17,0,0,1,.78.62,1.41,1.41,0,0,1,.27.85v1.3a1.78,1.78,0,0,1-.24.92,2,2,0,0,1-.7.69,2.53,2.53,0,0,1-.63.28,2.74,2.74,0,0,1-.7.09h-4V58.3Zm.33-1v.86h3.7a2.37,2.37,0,0,0,.61-.08,1.86,1.86,0,0,0,.54-.24,1.6,1.6,0,0,0,.6-.58,1.55,1.55,0,0,0,.19-.75v-1.3a1.05,1.05,0,0,0-.21-.65,1.73,1.73,0,0,0-.66-.53,3.24,3.24,0,0,0-.52-.19,2.51,2.51,0,0,0-.55-.06h-1.64a1.1,1.1,0,0,1-.78-.26,1,1,0,0,1-.27-.77v-.81a.78.78,0,0,1,.23-.58,1,1,0,0,1,.61-.26h3.84v-.86h-3.62a5.4,5.4,0,0,0-.61,0,1.81,1.81,0,0,0-.42.11,1.63,1.63,0,0,0-.78.61,1.77,1.77,0,0,0-.26,1V53a1.25,1.25,0,0,0,.15.61,1.45,1.45,0,0,0,.47.49,2.57,2.57,0,0,0,1.45.41h1.58a1.41,1.41,0,0,1,.7.25.72.72,0,0,1,.27.59v1.06a.74.74,0,0,1-.07.32,1.05,1.05,0,0,1-.22.26,1.75,1.75,0,0,1-.29.18,1.14,1.14,0,0,1-.33.08c-1.18.06-2.51,0-3.71,0Zm7.05-1V49.88h1.68v6.24a.82.82,0,0,0,.21.62.89.89,0,0,0,.65.21h1.92a1,1,0,0,0,.67-.17.58.58,0,0,0,.13-.22,1.27,1.27,0,0,0,.05-.37V49.88h1.67v6.39a2,2,0,0,1-.37,1.25,2.34,2.34,0,0,1-1.09.79l-.44.12a2,2,0,0,1-.42,0h-2.32a2.25,2.25,0,0,1-.44,0l-.44-.12a2.25,2.25,0,0,1-1.09-.77,2.12,2.12,0,0,1-.37-1.27Zm.33-6.06v6.06a1.74,1.74,0,0,0,.31,1.07,1.83,1.83,0,0,0,.93.66,2.79,2.79,0,0,0,.39.1,1.69,1.69,0,0,0,.38,0h2.32a1.47,1.47,0,0,0,.36,0,2.66,2.66,0,0,0,.38-.1,2,2,0,0,0,.95-.67,1.79,1.79,0,0,0,.3-1.06V50.21h-1v6a1.43,1.43,0,0,1-.07.48.84.84,0,0,1-.22.35,1.31,1.31,0,0,1-.89.26h-1.92a1.2,1.2,0,0,1-.88-.3,1.12,1.12,0,0,1-.31-.86V50.21Zm8,6V49.88h1.68v6.33a1.27,1.27,0,0,0,0,.37.43.43,0,0,0,.14.2.81.81,0,0,0,.28.12,1.93,1.93,0,0,0,.45.05h3.7v1.52h-3.67a4,4,0,0,1-1.08-.14,2.12,2.12,0,0,1-.82-.42,1.7,1.7,0,0,1-.55-.72,2.42,2.42,0,0,1-.18-1Zm.33-6v6a2.09,2.09,0,0,0,.15.83,1.49,1.49,0,0,0,.45.6h0a1.86,1.86,0,0,0,.7.36,3.63,3.63,0,0,0,1,.12h3.34v-.86h-3.37a2.09,2.09,0,0,1-.53-.06,1.13,1.13,0,0,1-.4-.18.77.77,0,0,1-.25-.35,1.35,1.35,0,0,1-.07-.48v-6Zm5.8,1V49.88H212V51.4h-2v7.07h-1.68V51.4h-2v-.17Zm.33-1v.86h2v7.07h1V51.07h2v-.86Zm5.95,8.09V49.88h1.68v8.59h-1.68V58.3Zm.33-8.09v7.93h1V50.21Zm2.66,8.09V51.19a1.45,1.45,0,0,1,.32-1,1.21,1.21,0,0,1,1-.37,2.68,2.68,0,0,1,.45.05h0a1.22,1.22,0,0,1,.56.3,1.91,1.91,0,0,1,.4.59l2.52,5.43V49.88h1.68v7.43a1.18,1.18,0,0,1-.09.46,1.32,1.32,0,0,1-.64.68,1.53,1.53,0,0,1-.49.12,1.31,1.31,0,0,1-.88-.18,1.68,1.68,0,0,1-.62-.73l-2.5-5.3v6.11h-1.67V58.3Zm.33-7.11v7h1V51.62l.32-.07,2.81,6a1.37,1.37,0,0,0,.49.6,1.09,1.09,0,0,0,.68.14,1.41,1.41,0,0,0,.38-.1,1,1,0,0,0,.29-.21,1,1,0,0,0,.18-.29.94.94,0,0,0,.07-.34v-7.1h-1v6.7l-.32.07-2.83-6.11a1.74,1.74,0,0,0-.33-.49.79.79,0,0,0-.39-.21,2.08,2.08,0,0,0-.39-.05.93.93,0,0,0-.72.26,1.21,1.21,0,0,0-.23.81Zm7.85,5v-4a2.2,2.2,0,0,1,.68-1.75,2.94,2.94,0,0,1,2-.58h3.74V51.4h-4a2.33,2.33,0,0,0-.37.08.7.7,0,0,0-.2.12.49.49,0,0,0-.1.19,1.06,1.06,0,0,0,0,.33v4.15l0,.11a.69.69,0,0,0,.19.38A.71.71,0,0,0,226,57h2.23c.48,0,.76-.2.82-.59V53.43h1.68v2.7a2.22,2.22,0,0,1-.63,1.7,1.79,1.79,0,0,1-.51.37,2.19,2.19,0,0,1-.61.2,3.57,3.57,0,0,1-.76.07h-1.87a4.86,4.86,0,0,1-.69,0,2.17,2.17,0,0,1-.56-.17h0a3,3,0,0,1-.64-.37,1.86,1.86,0,0,1-.43-.46,1.88,1.88,0,0,1-.23-.56,3,3,0,0,1-.08-.69Zm.33-4v4a2.27,2.27,0,0,0,.07.61,1.65,1.65,0,0,0,.19.47,1.57,1.57,0,0,0,.36.37,2.67,2.67,0,0,0,.56.33,2,2,0,0,0,.49.14,3.93,3.93,0,0,0,.63,0h1.87a3.54,3.54,0,0,0,.69-.06,2.45,2.45,0,0,0,.54-.17,1.7,1.7,0,0,0,.41-.31,2.29,2.29,0,0,0,.35-.48,2.1,2.1,0,0,0,.19-1V53.76h-1v2.6s0,0,0,.07a1,1,0,0,1-1.15.85h-2.27a1,1,0,0,1-.57-.27.94.94,0,0,1-.28-.55l0-.12a.34.34,0,0,1,0-.09V52.13a1.73,1.73,0,0,1,0-.42.73.73,0,0,1,.51-.53,2.17,2.17,0,0,1,.45-.1h3.71v-.86h-3.41a2.59,2.59,0,0,0-1.76.5,1.88,1.88,0,0,0-.57,1.5Zm2.05-1.13Z"/><polygon class="cls-5" points="64.95 49.59 65.81 49.59 65.81 58.76 64.95 58.76 64.95 49.59 64.95 49.59"/><polygon class="cls-5" points="156.24 49.59 157.09 49.59 157.09 58.76 156.24 58.76 156.24 49.59 156.24 49.59"/></svg>